# xmcd CD database file
#
# Track frame offsets:
#	151
#	12622
#	25493
#	37087
#	48589
#	61514
#	72781
#	88972
#	102012
#	115157
#	127061
#	141870
#	155647
#	170873
#	185324
#	198291
#	211988
#	224994
#	239998
#	252955
#
# Disc length: 3544 seconds
#
# Revision: 2
# Processed by: cddbd v1.5.2PL0 Copyright (c) Steve Scherf et al.
# Submitted via: CDex 1.70beta2
#
DISCID=3d0dd614
DTITLE=Django Reinhardt - Django Reinhardt Rhythm and Swing(Disc1 1934-1935)
DYEAR=2008
DGENRE=Jazz
TTITLE0=I Saw Stars
TTITLE1=I'm Conffessin
TTITLE2=Dinah
TTITLE3=Tiger Rag
TTITLE4=Oh Lady Be Good
TTITLE5=I Saw Stars
TTITLE6=Lily Belle May June
TTITLE7=Sweet Sue, Just You
TTITLE8=I'm Conffessin
TTITLE9=The Continental
TTITLE10=Blue Moon
TTITLE11=Avalon
TTITLE12=What a Difference a Day Made
TTITLE13=Stardust
TTITLE14=Blue Drag
TTITLE15=Swanee River
TTITLE16=The Sunshine of Your Smile
TTITLE17=Ultrafox
TTITLE18=Avalon
TTITLE19=Smoke Rings
EXTD=YEAR: 2008
EXTT0=
EXTT1=
EXTT2=
EXTT3=
EXTT4=
EXTT5=
EXTT6=
EXTT7=
EXTT8=
EXTT9=
EXTT10=
EXTT11=
EXTT12=
EXTT13=
EXTT14=
EXTT15=
EXTT16=
EXTT17=
EXTT18=
EXTT19=
PLAYORDER=
